Coordinates
version=1
nRows=14
nColumns=24
inDegrees=yes

Units are S.I. units (second, meters, Newtons, ...)
Angles are in degrees.

endheader
time	pelvis_tilt	pelvis_list	pelvis_rotation	pelvis_tx	pelvis_ty	pelvis_tz	hip_flexion_r	hip_adduction_r	hip_rotation_r	knee_angle_r	ankle_angle_r	subtalar_angle_r	mtp_angle_r	hip_flexion_l	hip_adduction_l	hip_rotation_l	knee_angle_l	ankle_angle_l	subtalar_angle_l	mtp_angle_l	lumbar_extension	lumbar_bending	lumbar_rotation
      4.62500000	    -10.79400123	      1.05202304	     -5.26012839	     -1.27288931	     -0.02999083	     -0.27286230	     -4.62357784	      2.76177907	      8.18831511	    -15.52393292	      8.39721357	      6.74243596	     20.58442357	     34.88787428	     -0.41266047	     -1.15345473	     -9.80644729	     -0.57283176	     -0.19100376	      7.40965314	      8.54111168	     -0.77998696	     13.40135514
      4.63000000	    -10.85193366	      1.21011635	     -5.39495747	     -1.26625453	     -0.03079618	     -0.27333707	     -4.66787737	      2.47655392	      8.08126261	    -16.07841543	      8.17993846	      7.30740107	     20.87315565	     34.88290364	     -0.29497522	     -1.34661472	    -10.39493956	     -0.98617486	     -0.32219064	      7.48271759	      8.78415583	     -0.93895198	     13.52100241
      4.63500000	    -10.88004112	      1.32836265	     -5.41808126	     -1.25970092	     -0.03156376	     -0.27405216	     -4.71564973	      2.20404431	      7.67736297	    -16.65917623	      7.93503563	      8.12004287	     21.45710664	     34.87450789	     -0.13431540	     -1.39754212	    -10.98104155	     -1.56368614	     -0.53283803	      7.80187249	      8.96431721	     -1.06937477	     13.49379429
      4.64000000	    -10.92686089	      1.52199015	     -5.42252523	     -1.25307046	     -0.03223250	     -0.27471821	     -4.73295154	      1.85771917	      7.25561221	    -17.22832638	      7.51049998	      8.76169342	     22.15561925	     34.86151440	      0.10341547	     -1.43904191	    -11.48985947	     -2.31866547	     -0.78375514	      8.29786674	      9.18810828	     -1.29161520	     13.49712619
      4.64500000	    -10.99723411	      1.76321119	     -5.47929275	     -1.24653879	     -0.03282629	     -0.27534702	     -4.67821941	      1.45843963	      6.98334933	    -17.87504331	      7.17886931	      9.51593652	     22.61455091	     34.90480360	      0.35709968	     -1.59898436	    -12.04723436	     -2.99078238	     -0.92735056	      8.48677643	      9.42913690	     -1.55161174	     13.52708605
      4.65000000	    -11.06612273	      2.04029483	     -5.44333926	     -1.23999606	     -0.03332625	     -0.27609229	     -4.60144719	      1.00844241	      6.50313010	    -18.54159260	      6.76418073	     10.33846813	     23.17205890	     34.95228758	      0.71045050	     -1.59934963	    -12.58673271	     -3.73804132	     -1.10758007	      8.71755995	      9.66985240	     -1.86956357	     13.48903992
      4.65500000	    -11.13745794	      2.35627056	     -5.37914420	     -1.23348939	     -0.03371758	     -0.27686522	     -4.49129555	      0.51140022	      5.98774734	    -19.23959848	      6.26479426	     11.17422594	     23.79390327	     35.01277623	      1.12759539	     -1.52487697	    -13.13406696	     -4.50789995	     -1.29930226	      8.92046399	      9.91133759	     -2.23692056	     13.44546702
      4.66000000	    -11.21056892	      2.70762422	     -5.28444940	     -1.22700100	     -0.03400348	     -0.27764546	     -4.34887917	     -0.02921261	      5.41881773	    -19.97202203	      5.68349384	     12.03450511	     24.44559187	     35.08630131	      1.60570678	     -1.36245424	    -13.70621059	     -5.25313734	     -1.47077369	      9.04034796	     10.15457836	     -2.65413166	     13.37869332
      4.66500000	    -11.28053172	      3.08500542	     -5.15246930	     -1.22053585	     -0.03419171	     -0.27845704	     -4.17965774	     -0.60773020	      4.78241221	    -20.74003558	      5.01383160	     12.93844965	     25.17086849	     35.16689580	      2.14522137	     -1.08496000	    -14.30714054	     -5.97269835	     -1.66092306	      9.04907613	     10.39031367	     -3.11008738	     13.29616649
      4.67000000	    -11.35008006	      3.48504633	     -4.99467634	     -1.21405447	     -0.03428855	     -0.27926257	     -3.98134004	     -1.22033150	      4.09518752	    -21.55108437	      4.25753163	     13.89317844	     25.89775842	     35.24843138	      2.73283288	     -0.72611247	    -14.93098573	     -6.61914498	     -1.83978445	      8.91855249	     10.63037568	     -3.60201997	     13.18710088
      4.67500000	    -11.38200692	      3.90077263	     -4.78640703	     -1.20756006	     -0.03425114	     -0.28013119	     -3.82008379	     -1.85715625	      3.38098732	    -22.32200591	      3.16156372	     14.65660562	     27.22434421	     35.26756736	      3.40434083	     -0.12862282	    -15.54154950	     -7.23936361	     -2.24656586	      8.39486763	     10.82320965	     -4.12808509	     13.01689796
      4.68000000	    -11.45376464	      4.30284469	     -4.60189955	     -1.20102512	     -0.03423267	     -0.28089374	     -3.55151503	     -2.50114344	      2.57587130	    -23.25559002	      2.29715691	     15.80171015	     27.73683641	     35.35600979	      4.01295745	      0.21239117	    -16.21463464	     -7.62380895	     -2.21645994	      8.15713555	     11.07439176	     -4.63439207	     12.90464118
      4.68500000	    -11.46867173	      4.71331073	     -4.36588825	     -1.19451608	     -0.03406482	     -0.28180017	     -3.33709025	     -3.17331472	      1.70777123	    -24.13949170	      1.01596818	     16.67392065	     28.97175626	     35.33033183	      4.73397525	      0.98506147	    -16.83055257	     -8.03495318	     -2.73405243	      7.15165578	     11.24379955	     -5.16106634	     12.75017755
      4.69000000	    -11.50640441	      5.06356339	     -4.14615942	     -1.18804872	     -0.03394126	     -0.28262446	     -3.03832253	     -3.80465898	      0.79144280	    -25.16252168	     -0.14046657	     17.83883154	     29.67733745	     35.35275844	      5.35320446	      1.54251977	    -17.49187312	     -8.26123164	     -2.88650881	      6.60451772	     11.42803116	     -5.62153971	     12.65842491
